<svg xmlns="http://www.w3.org/2000/svg" xmlns:xlink="http://www.w3.org/1999/xlink" width="500" zoomAndPan="magnify" viewBox="0 0 375 74.999997" height="100" preserveAspectRatio="xMidYMid meet" version="1.0"><defs><g/></defs><g fill="#000000" fill-opacity="1"><g transform="translate(13.430058, 54.213728)"><g><path d="M 15.105469 0.523438 C 21.96875 0.523438 27.300781 -3.65625 28.605469 -9.996094 L 22.492188 -9.996094 C 21.410156 -7.011719 18.648438 -5.109375 15.21875 -5.109375 C 10.777344 -5.109375 7.644531 -8.355469 7.644531 -13.054688 C 7.644531 -17.753906 10.816406 -21 15.253906 -21 C 18.574219 -21 21.296875 -19.207031 22.304688 -16.335938 L 28.421875 -16.335938 C 26.929688 -22.601562 21.707031 -26.628906 15.066406 -26.628906 C 7.160156 -26.628906 1.605469 -21.035156 1.605469 -13.054688 C 1.605469 -5.074219 7.160156 0.523438 15.105469 0.523438 Z M 15.105469 0.523438 "/></g></g></g><g fill="#000000" fill-opacity="1"><g transform="translate(54.525912, 54.213728)"><g><path d="M 0.335938 0 L 6.675781 0 L 8.429688 -4.511719 L 18.796875 -4.511719 L 20.550781 0 L 26.890625 0 L 16.523438 -26.109375 L 10.703125 -26.109375 Z M 9.957031 -9.175781 L 13.613281 -18.722656 L 17.304688 -9.175781 Z M 9.957031 -9.175781 "/></g></g></g><g fill="#000000" fill-opacity="1"><g transform="translate(92.7505, 54.213728)"><g><path d="M 12.234375 0.523438 C 18.425781 0.523438 22.230469 -2.425781 22.230469 -7.347656 C 22.230469 -11.488281 19.507812 -13.949219 13.015625 -15.476562 C 9.027344 -16.410156 7.644531 -17.417969 7.644531 -19.023438 C 7.644531 -20.738281 9.175781 -21.78125 11.675781 -21.78125 C 14.398438 -21.78125 16.039062 -20.363281 16.039062 -18.015625 L 21.746094 -18.015625 C 21.746094 -23.273438 17.789062 -26.628906 11.597656 -26.628906 C 5.59375 -26.628906 1.863281 -23.683594 1.863281 -18.910156 C 1.863281 -14.65625 4.738281 -12.121094 10.855469 -10.816406 C 14.546875 -10.03125 16.222656 -8.953125 16.222656 -7.125 C 16.222656 -5.371094 14.65625 -4.363281 12.195312 -4.363281 C 9.324219 -4.363281 7.460938 -5.820312 7.460938 -8.316406 L 1.640625 -8.316406 C 1.640625 -2.910156 5.667969 0.523438 12.234375 0.523438 Z M 12.234375 0.523438 "/></g></g></g><g fill="#000000" fill-opacity="1"><g transform="translate(127.656345, 54.213728)"><g><path d="M 0.335938 0 L 6.675781 0 L 8.429688 -4.511719 L 18.796875 -4.511719 L 20.550781 0 L 26.890625 0 L 16.523438 -26.109375 L 10.703125 -26.109375 Z M 9.957031 -9.175781 L 13.613281 -18.722656 L 17.304688 -9.175781 Z M 9.957031 -9.175781 "/></g></g></g><g fill="#000000" fill-opacity="1"><g transform="translate(165.880935, 54.213728)"><g><path d="M 15.105469 0.523438 C 21.96875 0.523438 27.300781 -3.65625 28.605469 -9.996094 L 22.492188 -9.996094 C 21.410156 -7.011719 18.648438 -5.109375 15.21875 -5.109375 C 10.777344 -5.109375 7.644531 -8.355469 7.644531 -13.054688 C 7.644531 -17.753906 10.816406 -21 15.253906 -21 C 18.574219 -21 21.296875 -19.207031 22.304688 -16.335938 L 28.421875 -16.335938 C 26.929688 -22.601562 21.707031 -26.628906 15.066406 -26.628906 C 7.160156 -26.628906 1.605469 -21.035156 1.605469 -13.054688 C 1.605469 -5.074219 7.160156 0.523438 15.105469 0.523438 Z M 15.105469 0.523438 "/></g></g></g><g fill="#000000" fill-opacity="1"><g transform="translate(206.97678, 54.213728)"><g><path d="M 0.335938 0 L 6.675781 0 L 8.429688 -4.511719 L 18.796875 -4.511719 L 20.550781 0 L 26.890625 0 L 16.523438 -26.109375 L 10.703125 -26.109375 Z M 9.957031 -9.175781 L 13.613281 -18.722656 L 17.304688 -9.175781 Z M 9.957031 -9.175781 "/></g></g></g><g fill="#000000" fill-opacity="1"><g transform="translate(245.201371, 54.213728)"><g><path d="M 3.132812 0 L 9.027344 0 L 9.027344 -15.738281 L 15.367188 -6.453125 L 19.46875 -6.453125 L 25.808594 -15.703125 L 25.808594 0 L 31.703125 0 L 31.703125 -26.109375 L 26.703125 -26.109375 L 17.457031 -12.570312 L 8.167969 -26.109375 L 3.132812 -26.109375 Z M 3.132812 0 "/></g></g></g><g fill="#000000" fill-opacity="1"><g transform="translate(291.032941, 54.213728)"><g><path d="M 3.132812 0 L 9.0625 0 L 9.0625 -7.273438 L 13.351562 -7.273438 C 19.65625 -7.273438 23.722656 -10.964844 23.722656 -16.671875 C 23.722656 -22.414062 19.65625 -26.109375 13.351562 -26.109375 L 3.132812 -26.109375 Z M 9.027344 -12.382812 L 9.027344 -20.925781 L 12.867188 -20.925781 C 15.964844 -20.925781 17.679688 -19.355469 17.679688 -16.632812 C 17.679688 -13.910156 15.964844 -12.382812 12.867188 -12.382812 Z M 9.027344 -12.382812 "/></g></g></g><g fill="#000000" fill-opacity="1"><g transform="translate(326.833719, 54.213728)"><g><path d="M 15.515625 0.523438 C 23.683594 0.523438 29.464844 -5.074219 29.464844 -13.054688 C 29.464844 -21.035156 23.683594 -26.628906 15.515625 -26.628906 C 7.347656 -26.628906 1.605469 -21.035156 1.605469 -13.054688 C 1.605469 -5.074219 7.347656 0.523438 15.515625 0.523438 Z M 7.644531 -13.054688 C 7.644531 -17.753906 10.890625 -21 15.515625 -21 C 20.179688 -21 23.386719 -17.753906 23.386719 -13.054688 C 23.386719 -8.355469 20.179688 -5.109375 15.515625 -5.109375 C 10.890625 -5.109375 7.644531 -8.355469 7.644531 -13.054688 Z M 7.644531 -13.054688 "/></g></g></g></svg>