<svg xmlns="http://www.w3.org/2000/svg" xmlns:xlink="http://www.w3.org/1999/xlink" width="500" zoomAndPan="magnify" viewBox="0 0 375 74.999997" height="100" preserveAspectRatio="xMidYMid meet" version="1.0"><defs><g/><clipPath id="505090c29c"><path d="M 126.769531 9.605469 L 154.519531 9.605469 L 154.519531 41.855469 L 126.769531 41.855469 Z M 126.769531 9.605469 " clip-rule="nonzero"/></clipPath><clipPath id="46e28a0604"><path d="M 341.582031 9.605469 L 373.464844 9.605469 L 373.464844 41.484375 L 341.582031 41.484375 Z M 341.582031 9.605469 " clip-rule="nonzero"/></clipPath><clipPath id="20121b9279"><path d="M 357.523438 9.605469 C 348.71875 9.605469 341.582031 16.742188 341.582031 25.542969 C 341.582031 34.347656 348.71875 41.484375 357.523438 41.484375 C 366.328125 41.484375 373.464844 34.347656 373.464844 25.542969 C 373.464844 16.742188 366.328125 9.605469 357.523438 9.605469 Z M 357.523438 9.605469 " clip-rule="nonzero"/></clipPath></defs><g fill="#000000" fill-opacity="1"><g transform="translate(168.102459, 39.696951)"><g><path d="M 16.65625 0.578125 C 24.21875 0.578125 30.09375 -4.03125 31.53125 -11.015625 L 24.78125 -11.015625 C 23.59375 -7.734375 20.546875 -5.625 16.765625 -5.625 C 11.875 -5.625 8.421875 -9.203125 8.421875 -14.390625 C 8.421875 -19.5625 11.921875 -23.140625 16.8125 -23.140625 C 20.46875 -23.140625 23.46875 -21.171875 24.578125 -18 L 31.328125 -18 C 29.6875 -24.90625 23.921875 -29.359375 16.609375 -29.359375 C 7.890625 -29.359375 1.765625 -23.1875 1.765625 -14.390625 C 1.765625 -5.59375 7.890625 0.578125 16.65625 0.578125 Z M 16.65625 0.578125 "/></g></g></g><g fill="#000000" fill-opacity="1"><g transform="translate(213.3966, 39.696951)"><g><path d="M 0.375 0 L 7.359375 0 L 9.296875 -4.96875 L 20.71875 -4.96875 L 22.65625 0 L 29.640625 0 L 18.21875 -28.78125 L 11.796875 -28.78125 Z M 10.96875 -10.109375 L 15 -20.640625 L 19.078125 -10.109375 Z M 10.96875 -10.109375 "/></g></g></g><g fill="#000000" fill-opacity="1"><g transform="translate(255.525897, 39.696951)"><g><path d="M 3.453125 0 L 9.953125 0 L 9.953125 -17.34375 L 16.9375 -7.109375 L 21.453125 -7.109375 L 28.453125 -17.3125 L 28.453125 0 L 34.9375 0 L 34.9375 -28.78125 L 29.4375 -28.78125 L 19.234375 -13.859375 L 9 -28.78125 L 3.453125 -28.78125 Z M 3.453125 0 "/></g></g></g><g fill="#000000" fill-opacity="1"><g transform="translate(306.039956, 39.696951)"><g><path d="M 3.453125 0 L 9.984375 0 L 9.984375 -8.015625 L 14.71875 -8.015625 C 21.671875 -8.015625 26.140625 -12.09375 26.140625 -18.375 C 26.140625 -24.703125 21.671875 -28.78125 14.71875 -28.78125 L 3.453125 -28.78125 Z M 9.953125 -13.640625 L 9.953125 -23.0625 L 14.1875 -23.0625 C 17.59375 -23.0625 19.484375 -21.328125 19.484375 -18.328125 C 19.484375 -15.328125 17.59375 -13.640625 14.1875 -13.640625 Z M 9.953125 -13.640625 "/></g></g></g><g fill="#000000" fill-opacity="1"><g transform="translate(0.0000075, 39.696951)"><g><path d="M 16.65625 0.578125 C 24.21875 0.578125 30.09375 -4.03125 31.53125 -11.015625 L 24.78125 -11.015625 C 23.59375 -7.734375 20.546875 -5.625 16.765625 -5.625 C 11.875 -5.625 8.421875 -9.203125 8.421875 -14.390625 C 8.421875 -19.5625 11.921875 -23.140625 16.8125 -23.140625 C 20.46875 -23.140625 23.46875 -21.171875 24.578125 -18 L 31.328125 -18 C 29.6875 -24.90625 23.921875 -29.359375 16.609375 -29.359375 C 7.890625 -29.359375 1.765625 -23.1875 1.765625 -14.390625 C 1.765625 -5.59375 7.890625 0.578125 16.65625 0.578125 Z M 16.65625 0.578125 "/></g></g></g><g fill="#000000" fill-opacity="1"><g transform="translate(45.294148, 39.696951)"><g><path d="M 0.375 0 L 7.359375 0 L 9.296875 -4.96875 L 20.71875 -4.96875 L 22.65625 0 L 29.640625 0 L 18.21875 -28.78125 L 11.796875 -28.78125 Z M 10.96875 -10.109375 L 15 -20.640625 L 19.078125 -10.109375 Z M 10.96875 -10.109375 "/></g></g></g><g fill="#000000" fill-opacity="1"><g transform="translate(87.423445, 39.696951)"><g><path d="M 13.484375 0.578125 C 20.3125 0.578125 24.5 -2.671875 24.5 -8.09375 C 24.5 -12.65625 21.5 -15.375 14.34375 -17.0625 C 9.953125 -18.09375 8.421875 -19.203125 8.421875 -20.96875 C 8.421875 -22.859375 10.109375 -24.015625 12.875 -24.015625 C 15.875 -24.015625 17.671875 -22.453125 17.671875 -19.859375 L 23.96875 -19.859375 C 23.96875 -25.65625 19.609375 -29.359375 12.78125 -29.359375 C 6.171875 -29.359375 2.0625 -26.109375 2.0625 -20.84375 C 2.0625 -16.15625 5.21875 -13.359375 11.96875 -11.921875 C 16.03125 -11.0625 17.875 -9.859375 17.875 -7.859375 C 17.875 -5.921875 16.15625 -4.8125 13.4375 -4.8125 C 10.28125 -4.8125 8.21875 -6.40625 8.21875 -9.171875 L 1.8125 -9.171875 C 1.8125 -3.203125 6.25 0.578125 13.484375 0.578125 Z M 13.484375 0.578125 "/></g></g></g><g clip-path="url(#505090c29c)"><path fill="#000000" d="M 126.78125 41.480469 L 140.511719 9.605469 L 154.242188 41.480469 Z M 126.78125 41.480469 " fill-opacity="1" fill-rule="nonzero"/></g><g clip-path="url(#46e28a0604)"><g clip-path="url(#20121b9279)"><path fill="#000000" d="M 341.582031 9.605469 L 373.464844 9.605469 L 373.464844 41.484375 L 341.582031 41.484375 Z M 341.582031 9.605469 " fill-opacity="1" fill-rule="nonzero"/></g></g><g fill="#000000" fill-opacity="1"><g transform="translate(140.63301, 67.611845)"><g><path d="M 1.390625 0 L 2.59375 0 L 2.59375 -7.515625 L 7.890625 0 L 9.015625 0 L 9.015625 -9.59375 L 7.84375 -9.59375 L 7.84375 -2.078125 L 2.53125 -9.59375 L 1.390625 -9.59375 Z M 1.390625 0 "/></g></g></g><g fill="#000000" fill-opacity="1"><g transform="translate(155.087148, 67.611845)"><g><path d="M 1.390625 0 L 7.375 0 L 7.375 -1.125 L 2.609375 -1.125 L 2.609375 -4.328125 L 6.875 -4.328125 L 6.875 -5.4375 L 2.609375 -5.4375 L 2.609375 -8.46875 L 7.21875 -8.46875 L 7.21875 -9.59375 L 1.390625 -9.59375 Z M 1.390625 0 "/></g></g></g><g fill="#000000" fill-opacity="1"><g transform="translate(167.390303, 67.611845)"><g><path d="M 3.375 0 L 4.5 0 L 7.375 -7.765625 L 8.96875 -3.5 L 10.265625 0 L 11.390625 0 L 14.515625 -9.59375 L 13.25 -9.59375 L 10.78125 -1.921875 L 7.953125 -9.59375 L 6.8125 -9.59375 L 3.96875 -1.9375 L 2.84375 -5.453125 L 1.515625 -9.59375 L 0.265625 -9.59375 Z M 3.375 0 "/></g></g></g><g fill="#000000" fill-opacity="1"><g transform="translate(186.20123, 67.611845)"><g/></g></g><g fill="#000000" fill-opacity="1"><g transform="translate(193.640666, 67.611845)"><g><path d="M 3.84375 0 L 5.015625 0 L 5.015625 -3.453125 L 8.625 -9.59375 L 7.265625 -9.59375 L 4.4375 -4.734375 L 3.1875 -6.90625 L 1.625 -9.59375 L 0.234375 -9.59375 L 3.84375 -3.453125 Z M 3.84375 0 "/></g></g></g><g fill="#000000" fill-opacity="1"><g transform="translate(206.532937, 67.611845)"><g><path d="M 5.75 0.171875 C 8.671875 0.171875 10.734375 -1.875 10.734375 -4.796875 C 10.734375 -7.71875 8.671875 -9.765625 5.75 -9.765625 C 2.84375 -9.765625 0.796875 -7.71875 0.796875 -4.796875 C 0.796875 -1.875 2.84375 0.171875 5.75 0.171875 Z M 2.03125 -4.796875 C 2.03125 -7.03125 3.546875 -8.5625 5.75 -8.5625 C 7.96875 -8.5625 9.484375 -7.03125 9.484375 -4.796875 C 9.484375 -2.5625 7.96875 -1.03125 5.75 -1.03125 C 3.546875 -1.03125 2.03125 -2.5625 2.03125 -4.796875 Z M 2.03125 -4.796875 "/></g></g></g><g fill="#000000" fill-opacity="1"><g transform="translate(222.083134, 67.611845)"><g><path d="M 1.390625 0 L 2.609375 0 L 2.609375 -3.4375 L 4.71875 -3.4375 L 7.0625 0 L 8.515625 0 L 6.09375 -3.5625 C 7.5 -3.90625 8.359375 -4.953125 8.359375 -6.515625 C 8.359375 -8.40625 7.046875 -9.59375 5.0625 -9.59375 L 1.390625 -9.59375 Z M 2.609375 -4.59375 L 2.609375 -8.4375 L 4.921875 -8.4375 C 6.3125 -8.4375 7.125 -7.734375 7.125 -6.515625 C 7.125 -5.296875 6.3125 -4.59375 4.921875 -4.59375 Z M 2.609375 -4.59375 "/></g></g></g><g fill="#000000" fill-opacity="1"><g transform="translate(235.454935, 67.611845)"><g><path d="M 1.390625 0 L 2.609375 0 L 2.609375 -4.3125 L 3.96875 -4.3125 C 4.34375 -4.3125 4.671875 -4.34375 4.96875 -4.40625 L 7.453125 0 L 8.859375 0 L 6.09375 -4.84375 C 6.640625 -5.1875 7.03125 -5.734375 7.296875 -6.46875 L 8.484375 -9.59375 L 7.203125 -9.59375 L 6.21875 -6.953125 C 5.84375 -5.90625 5.28125 -5.46875 3.96875 -5.46875 L 2.609375 -5.46875 L 2.609375 -9.59375 L 1.390625 -9.59375 Z M 1.390625 0 "/></g></g></g></svg>